<?xml version="1.0" encoding="utf-8"?>
<!-- Generator: Adobe Illustrator 19.0.0, SVG Export Plug-In . SVG Version: 6.00 Build 0)  -->
<svg version="1.1" id="Layer_1" xmlns="http://www.w3.org/2000/svg" xmlns:xlink="http://www.w3.org/1999/xlink" x="0px" y="0px"
	 viewBox="0 0 204.9 204.7" style="enable-background:new 0 0 204.9 204.7;" xml:space="preserve">
<style type="text/css">
	.st0{fill:#7FCDCA;}
	.st1{fill:#43AB94;}
	.st2{fill:#4CBEA5;}
	.st3{fill:#68C4BC;}
</style>
<path id="XMLID_533_" class="st0" d="M0.3,103.9C-3.5,57.8,33.5,11.2,81,2.2c29.7-5.7,57.1-0.5,81.5,17.9c-0.2,0.6-0.4,1.2-0.5,1.9
	c-17.8-8.2-35.3-2.1-52.9,0.8c-4.4,0.7-8.7,2.5-12.8-0.3c-10.9-7.4-19.9-4.7-28.6,6.2c4.3,0.4,7.3,8.3,11.1-1c1.6-3.8,4-1.4,6.2,0.2
	c3.8,2.8,1.2,4.1-1.1,5.5c-9,5.6-17.8,4-27.3-0.9c0.1,7,4.2,15.4-6.2,18.3c-0.7,0.2-1.1,2.7-1,4.1c0.3,6.2-3.2,10.8-7.2,14.4
	c-5.7,5.1-8,11.1-5.1,17.8c2.8,6.6,7.6,11.5,16.3,10.5c7.9-0.9,10.4,4,11.5,11.5c1.8,11.5,0,23.2,3.7,34.7c2.9,9.2,6.9,8.4,12.7,4.3
	c3.5-2.6,5.8-6.7,8.7-9.9c9.5-10.5,6.1-27.3,18.6-36.2c2.2-1.6,3.1-4.8-1.5-6.6c-8.8-3.5-10-11.5-11.4-20.2c4.4,1.9,4.7,5.6,6.3,8.3
	c1.8,3.1,2.4,7.5,7.3,7.1c5-0.4,10.4-2.4,11.5-7.2c2.2-9.3,5.9-5.1,10.7-2.6c7.4,3.9,5.8,13.1,10.7,18c3.3-0.8,3.4-3.3,4.5-5.1
	c5-8.7,8.6-9.1,16-1.8c1.3,1.3,2.8,2.3,4.3,3.5c0,1.4-0.1,2.8-0.1,4.2c-1.9,18.7,0.9,24.5,13.6,27.6c0.8-2.6-2.1-2.4-2.8-3.7
	c-4-6.5-8-13.2-4.3-21.3c4.6-0.7,4.9-3.7,3.9-7.3c-0.7-2.6-1.6-5.3,2-6.2c14.3-3.8,13.2-12.2,5.8-23c4.9,0.4,8.8,0.5,12.4-1.4
	c9.4,23.7,10.3,47.6,1.8,71.8c-0.4,0.5-0.9,1.1-1.4,1.6c0,0,0,0.1,0,0.1c-6.7-0.4-11.8,3.9-17,6.9c-4.7,2.6-5.1,9-4.6,13.9
	c0.5,5.1,5.9,2.7,9.1,3.5c-10.7,15.8-24.9,27.1-42.6,34.1c-27.4,3.5-54.8-4-82.2-0.9c-28.6-12.6-47.9-33.6-56.3-64
	c1-3.9,1.1-8.4,3.2-11.5C13.8,110,10,105.8,0.3,103.9z M188.6,113.8c-0.1-2.2-0.4-4.7-2.8-3.8c-3.4,1.2-6.8,3.4-7,7.6
	c-0.1,2.6,2.3,4,4.6,3.5C187.3,120.3,188.1,116.8,188.6,113.8z M108.2,131.6c0.3-2.4-0.3-4.5-2.5-3.9c-4.4,1.2-5.4,5.4-6.4,9.3
	c-0.5,1.8-0.7,4.4,1.8,4C106.3,140.3,106.2,134.8,108.2,131.6z"/>
<path id="XMLID_487_" class="st1" d="M197.3,64.1c-3.6,1.9-7.5,1.7-12.4,1.4c7.4,10.8,8.5,19.2-5.8,23c-3.6,0.9-2.7,3.6-2,6.2
	c1,3.6,0.7,6.6-3.9,7.3c-1.6-2.3-4-2.3-6.4-2.6c0-1.4,0.1-2.8,0.1-4.2c4-4,3.7-9.1,4.2-14.3c2.2-20.5-3.6-39.7-9.2-59
	c0.1-0.6,0.3-1.3,0.5-1.9C178.8,31.1,190,46.1,197.3,64.1z"/>
<path id="XMLID_448_" class="st1" d="M60.4,195c27.4-3.1,54.8,4.4,82.2,0.9C115.1,207.7,87.7,207.8,60.4,195z"/>
<path id="XMLID_443_" class="st1" d="M185.3,161.8c-3.3-0.8-8.6,1.5-9.1-3.5c-0.5-4.9-0.1-11.3,4.6-13.9c5.2-2.9,10.3-7.3,17-6.9
	C196.1,147,191,154.6,185.3,161.8z"/>
<path id="XMLID_441_" class="st2" d="M0.3,103.9c9.7,1.9,13.4,6.1,7,15.6c-2.1,3.1-2.2,7.6-3.2,11.5C0.8,122.3-0.7,113.3,0.3,103.9z
	"/>
<path id="XMLID_435_" class="st1" d="M197.8,137.5c0.5-0.5,0.9-1.1,1.4-1.6C198.7,136.4,198.2,137,197.8,137.5z"/>
<path id="XMLID_424_" class="st2" d="M162,22c5.6,19.3,11.4,38.5,9.2,59c-0.5,5.1-0.3,10.3-4.2,14.3c-1.4-1.1-2.9-2.2-4.2-3.5
	c-7.4-7.3-11-7-16,1.8c-1.1,1.9-1.2,4.3-4.5,5.1c-5-4.9-3.3-14.2-10.7-18c-4.7-2.5-8.4-6.7-10.7,2.6c-1.2,4.9-6.6,6.8-11.5,7.2
	c-4.9,0.4-5.5-4.1-7.3-7.1c-1.6-2.7-1.9-6.3-6.3-8.3c1.4,8.7,2.6,16.7,11.4,20.2c4.6,1.8,3.7,5.1,1.5,6.6
	c-12.6,8.9-9.2,25.7-18.6,36.2c-2.9,3.2-5.2,7.3-8.7,9.9c-5.7,4.2-9.7,4.9-12.7-4.3c-3.7-11.5-2-23.2-3.7-34.7
	c-1.2-7.5-3.6-12.4-11.5-11.5c-8.7,1-13.5-3.9-16.3-10.5c-2.9-6.7-0.5-12.7,5.1-17.8c4-3.6,7.5-8.2,7.2-14.4c-0.1-1.4,0.3-3.9,1-4.1
	c10.4-3,6.2-11.4,6.2-18.3c9.5,5,18.3,6.6,27.3,0.9c2.3-1.4,4.9-2.8,1.1-5.5c-2.1-1.6-4.6-4-6.2-0.2c-3.8,9.3-6.8,1.3-11.1,1
	c8.7-10.9,17.7-13.5,28.6-6.2c4.1,2.8,8.4,1,12.8,0.3C126.6,19.9,144.2,13.7,162,22z M89,55.4c-3.3-0.8-6.4,1.3-10.1-1.8
	c-9.6-7.9-16.7-6-23.9,5.5c4.7,0.6,9.8-3.4,13.5,1.8c5.8,8.3,14.7,5.1,22.4,5.4c4.4,0.2,6.3-2.7,1.8-6.1C90.8,58.9,89,57.9,89,55.4
	c3.6-0.9,7.7,1.3,12.8-2.4C95.8,50.1,91.1,42.7,89,55.4z"/>
<path id="XMLID_423_" class="st3" d="M166.8,99.4c2.4,0.2,4.8,0.3,6.4,2.6c-3.6,8.1,0.3,14.8,4.3,21.3c0.8,1.3,3.6,1.1,2.8,3.7
	C167.7,123.9,164.9,118.2,166.8,99.4z"/>
<path id="XMLID_422_" class="st1" d="M188.6,113.8c-0.5,3-1.3,6.5-5.1,7.3c-2.3,0.5-4.7-1-4.6-3.5c0.2-4.2,3.6-6.3,7-7.6
	C188.2,109.1,188.5,111.5,188.6,113.8z"/>
<path id="XMLID_421_" class="st3" d="M108.2,131.6c-2,3.2-1.8,8.7-7.2,9.5c-2.4,0.4-2.3-2.3-1.8-4c1-3.9,2-8.1,6.4-9.3
	C107.9,127.1,108.5,129.2,108.2,131.6z"/>
<path id="XMLID_400_" class="st0" d="M88.9,55.3c0.1,2.5,1.9,3.6,3.8,5c4.4,3.4,2.6,6.3-1.8,6.1c-7.7-0.3-16.6,2.9-22.4-5.4
	c-3.6-5.2-8.8-1.2-13.5-1.8c7.2-11.6,14.3-13.5,23.9-5.5C82.6,56.7,85.7,54.6,88.9,55.3L88.9,55.3z"/>
<path id="XMLID_399_" class="st0" d="M89,55.4c2.1-12.7,6.8-5.3,12.8-2.4C96.7,56.7,92.6,54.5,89,55.4C88.9,55.3,89,55.4,89,55.4z"
	/>
</svg>
