<?xml version="1.0" encoding="utf-8"?>
<!-- Generator: Adobe Illustrator 19.0.0, SVG Export Plug-In . SVG Version: 6.00 Build 0)  -->
<svg version="1.1" id="Layer_1" xmlns="http://www.w3.org/2000/svg" xmlns:xlink="http://www.w3.org/1999/xlink" x="0px" y="0px"
	 viewBox="0 0 204.9 204.7" style="enable-background:new 0 0 204.9 204.7;" xml:space="preserve">
<style type="text/css">
	.st0{fill:#D96E5B;}
	.st1{fill:#F18889;}
</style>
<path id="XMLID_545_" class="st0" d="M191.1,142.4c-15.1,33.5-41.6,52.7-77.4,57c-36.2,4.3-66.9-7.9-89.4-37.7
	c0.6-0.3,1.2-0.6,1.9-0.9c3.6-1.7,9.4-1.2,9.9-6.4c0.6-5.3-5.1-5.9-8.5-7.9c-2.7-1.6-7-2.4-7-5.7c0.2-9.2-5.9-8.8-11.9-8.8
	c-8.2-20.6-6.8-41.2,0.6-61.6c11.9,1.4,23.9,2.6,35.9,2.2c7.1-0.2,14.3,1.1,16-9.2c0.6-3.6,5.1-4.4,8.4-5.7c8.6-3.2,17.5-1.7,26.3-2
	c5-0.2,10,0,14.3-3.1c2.8-2.1,6.5-4,6.3-8c-0.2-4.1-4-5.5-7.4-6.6c-4.7-1.4-9.5-2.8-14.3-4c-19.8-5.2-40.1,1.6-60-2.3
	c39-40.7,110.4-34.7,145.4,12.1c8.4,11.2,14.4,23.4,17.2,37.1c-23.7-2-46.5,5.2-69.9,6.7c-3.1,0.2-6.4,2.6-5.4,5.3
	c6.4,17.3-2.7,25.2-17.4,30.1c-0.6,0.2-1.2,0.8-1.7,1.2c-6.3,4.8-5.1,9.3,1.6,11.6c8.9,3.1,18.1,5.7,27.6,7.1
	C151.9,145.7,171.5,144,191.1,142.4z"/>
<path id="XMLID_518_" class="st1" d="M191.1,142.4c-19.6,1.6-39.2,3.3-59,0.5c-9.5-1.4-18.6-4-27.6-7.1c-6.7-2.3-7.9-6.8-1.6-11.6
	c0.6-0.4,1.1-1,1.7-1.2c14.7-4.9,23.8-12.8,17.4-30.1c-1-2.7,2.3-5.1,5.4-5.3c23.4-1.5,46.2-8.7,69.9-6.7
	C202.5,102.1,200.6,122.6,191.1,142.4z"/>
<path id="XMLID_506_" class="st1" d="M34.8,31.6c19.9,3.9,40.2-2.9,60,2.3c4.8,1.3,9.5,2.6,14.3,4c3.5,1,7.2,2.5,7.4,6.6
	c0.2,4-3.5,5.9-6.3,8c-4.2,3.1-9.3,2.9-14.3,3.1c-8.8,0.3-17.7-1.1-26.3,2c-3.4,1.2-7.9,2.1-8.4,5.7c-1.7,10.2-8.9,9-16,9.2
	c-12.1,0.4-24-0.8-35.9-2.2C14.1,55,22.4,42,34.8,31.6z"/>
<path id="XMLID_446_" class="st1" d="M8.6,131.9c6.1,0,12.1-0.4,11.9,8.8c-0.1,3.4,4.3,4.1,7,5.7c3.4,2,9.1,2.6,8.5,7.9
	c-0.5,5.2-6.3,4.6-9.9,6.4c-0.6,0.3-1.3,0.6-1.9,0.9C16.5,153.1,11,143.4,8.6,131.9z"/>
</svg>
