<?xml version="1.0" encoding="utf-8"?>
<!-- Generator: Adobe Illustrator 19.0.0, SVG Export Plug-In . SVG Version: 6.00 Build 0)  -->
<svg version="1.1" id="Layer_1" xmlns="http://www.w3.org/2000/svg" xmlns:xlink="http://www.w3.org/1999/xlink" x="0px" y="0px"
	 viewBox="0 0 204.9 204.7" style="enable-background:new 0 0 204.9 204.7;" xml:space="preserve">
<style type="text/css">
	.st0{fill:#FDFDFD;}
	.st1{fill:#E3E3E3;}
</style>
<path id="XMLID_541_" class="st0" d="M19.8,161C-14.5,121.1-2.8,53.5,43.9,22.2c33.9-22.7,79.8-22.3,110.6,1.1
	c0.5,0.5,1.1,0.9,1.6,1.4c0,0,0.4,0.2,0.4,0.2c3.7,15.7,9.3,30.7,9,47.6c-0.8,57-43.5,99.6-100.7,99C49,171.3,34.6,165.6,19.8,161z
	 M136.3,116c4.1-0.2,8-1.6,8.6-6c0.5-3.7-2.8-4.8-5.7-3.9c-3.7,1.2-9.2,0.9-9.4,6.5C129.7,116.5,133.6,115.7,136.3,116z M19.4,104.9
	c-0.5-2-2-3.4-4.4-3.2c-2,0.2-2.9,1.7-2.9,3.7c0,2,0.9,3.5,3,3.6C17.6,109.1,19.1,107.9,19.4,104.9z"/>
<path id="XMLID_525_" class="st1" d="M19.8,161c14.8,4.5,29.2,10.3,45.1,10.4c57.1,0.6,99.9-42.1,100.7-99c0.2-16.8-5.4-31.9-9-47.6
	c31.6,22.4,44.7,53.8,40,91.3c-5,40-28.4,67.3-66.6,80.6C89.3,210.7,41,194.6,19.8,161z"/>
<path id="XMLID_436_" class="st1" d="M156.2,24.6c-0.5-0.5-1.1-0.9-1.6-1.4C155.1,23.7,155.6,24.2,156.2,24.6z"/>
<path id="XMLID_431_" class="st1" d="M136.2,116c-2.7-0.3-6.6,0.5-6.5-3.4c0.1-5.6,5.7-5.4,9.4-6.5c2.9-0.9,6.2,0.2,5.7,3.9
	C144.2,114.5,140.4,115.8,136.2,116z"/>
<path id="XMLID_430_" class="st1" d="M19.4,104.9c-0.3,3-1.9,4.2-4.2,4.1c-2.1-0.1-3-1.6-3-3.6c0-2,0.9-3.5,2.9-3.7
	C17.5,101.5,18.9,103,19.4,104.9z"/>
</svg>
