<?xml version="1.0" encoding="utf-8"?>
<!-- Generator: Adobe Illustrator 19.0.0, SVG Export Plug-In . SVG Version: 6.00 Build 0)  -->
<svg version="1.1" id="Layer_1" xmlns="http://www.w3.org/2000/svg" xmlns:xlink="http://www.w3.org/1999/xlink" x="0px" y="0px"
	 viewBox="0 0 204.9 204.7" style="enable-background:new 0 0 204.9 204.7;" xml:space="preserve">
<style type="text/css">
	.st0{fill:#F6D075;}
	.st1{fill:#D96E5B;}
	.st2{fill:#ED994B;}
	.st3{fill:#F1E574;}
</style>
<path id="XMLID_529_" class="st0" d="M204.6,88.3c2.3,30.4-7.4,56.1-30.5,76.4c-5.7,4.6,0,0-7.5,5.7c-26.5,24.8-77.4,26.1-110.7,2.8
	c-16.9-11.9-29.6-27.2-36-47.2c44.3-5.1,88.5-2,132.9,0.7c-2.1-1.6-4.3-2.5-6.6-2.9c-20.9-4.4-42-6.9-63.2-8.2
	c-21.6-1.3-43.4-1.9-64.2,5.9c-2.7-6.8-4.1-13.8-3.4-21.1c31.2,3.5,62.1,0.3,93.2-3.2C140.5,93.6,172.6,91.2,204.6,88.3z
	 M178.4,145.3c-45.1-13.1-80-16.7-98.4-10.3C112.4,137.9,144,149,178.4,145.3z M79.8,179.5c6.7-1.2,17.2,1,17.3-8.2
	c0.2-10.1-10.6-8.8-17.6-8.4c-6.6,0.4-17.4-0.7-17.2,8.2C62.5,179.5,72.9,178.4,79.8,179.5z"/>
<path id="XMLID_521_" class="st0" d="M20.7,63.2c3.8-12.9,10.6-23.9,20.7-32.9c20.3,4.8,40.8,4.8,61.4,3.5
	C85.8,30,69,25.7,52.5,20.5c44.2-39,119.9-19.8,144.8,36.7c1.2,2.8,2.1,5.8,3.1,8.7c-21.6-0.8-43.2,4-64.8,1.5
	C107.3,64,79,60.6,50.5,61.5C40.5,61.8,30.6,62.6,20.7,63.2z M172.2,50.3c-42.9-12.5-85.8-1-128.7-0.2
	C86.4,57.5,129.3,50.7,172.2,50.3z"/>
<path id="XMLID_517_" class="st1" d="M20.7,63.2c9.9-0.6,19.8-1.4,29.7-1.7c28.6-0.9,56.8,2.5,85.1,5.8c21.6,2.5,43.2-2.2,64.8-1.5
	c2.7,7.3,5.1,14.6,4.2,22.5c-32,2.9-64.1,5.3-96.1,8.9c-31,3.5-61.9,6.7-93.2,3.2c-1.2-4.2-0.8-8.4-0.1-12.6
	c43.3,4.8,86.3,5,128.6-8.9c-42.3,2.1-84-8.2-126.4-5.1C17.2,69.9,18.8,66.5,20.7,63.2z"/>
<path id="XMLID_498_" class="st2" d="M17.6,73.8c42.3-3.1,84,7.2,126.4,5.1c-42.3,13.9-85.3,13.7-128.6,8.9
	C15,83,15.4,78.2,17.6,73.8z"/>
<path id="XMLID_474_" class="st2" d="M18.7,121.5c20.9-7.8,42.6-7.2,64.2-5.9c21.2,1.3,42.4,3.8,63.2,8.2c2.3,0.5,4.5,1.4,6.6,2.9
	c-44.4-2.7-88.6-5.8-132.9-0.7C19.5,124.5,19.1,123,18.7,121.5z"/>
<path id="XMLID_447_" class="st2" d="M52.5,20.5C69,25.7,85.8,30,102.8,33.8c-20.6,1.3-41.1,1.2-61.4-3.5
	C44.4,26.2,47.7,22.6,52.5,20.5z"/>
<path id="XMLID_420_" class="st3" d="M178.4,145.3c-34.3,3.7-66-7.4-98.4-10.3C98.4,128.6,133.3,132.2,178.4,145.3z"/>
<path id="XMLID_419_" class="st1" d="M79.8,179.5c-6.9-1.1-17.3,0-17.5-8.4c-0.2-8.9,10.6-7.8,17.2-8.2c7-0.4,17.7-1.7,17.6,8.4
	C97,180.5,86.5,178.3,79.8,179.5z"/>
<path id="XMLID_413_" class="st3" d="M172.2,50.3c-42.9,0.4-85.8,7.2-128.7-0.2C86.4,49.3,129.3,37.9,172.2,50.3z"/>
</svg>
