<?xml version="1.0" encoding="utf-8"?>
<!-- Generator: Adobe Illustrator 19.0.0, SVG Export Plug-In . SVG Version: 6.00 Build 0)  -->
<svg version="1.1" id="Layer_1" xmlns="http://www.w3.org/2000/svg" xmlns:xlink="http://www.w3.org/1999/xlink" x="0px" y="0px"
	 viewBox="0 0 204.9 204.7" style="enable-background:new 0 0 204.9 204.7;" xml:space="preserve">
<style type="text/css">
	.st0{fill:#7FCDCA;}
	.st1{fill:#68C4BC;}
	.st2{fill:#E3E3E3;}
	.st3{fill:#FDFDFD;}
</style>
<path id="XMLID_537_" class="st0" d="M29.6,99.4C28.8,82.7,35.7,68.9,45.4,56c1.6-2.1,3.1-4.2,4.6-6.3c5.3-2.2,8.3-7.4,13.1-10.2
	c18.4-9.9,37.8-12.7,58.3-9.2c1.3,0.7,2.5,1.5,3.8,2.2c2.5,0.9,5,1.7,7.4,2.7c14.8,5.9,25.1,17.1,34.5,29.4
	c-13,30.1-32.2,55.8-54.8,79.2c-4.4-0.9-8.8-1.2-13.3-1.3c-28.8-0.2-50.3-13.4-64.8-38C32.8,102.5,32.2,100.2,29.6,99.4z M73,82
	c-0.7-4.1-3.9-5.5-7.4-5.9c-2-0.3-5.7-1.3-5.5,2.3c0.2,3.1,2.6,6,6.1,6.5C68.8,85.2,71.6,85.3,73,82z M109.2,136.8
	c2,0.1,4,0.3,4.1-2.3c0.1-2.1-1.3-3.4-3.3-3.7c-1.8-0.2-4.1,0.1-4.5,2.1C104.9,135.4,107.3,136.1,109.2,136.8z"/>
<path id="XMLID_516_" class="st1" d="M172.5,80c17.8,46.5-22.5,99.1-73.1,95.6c-3.1-0.2-6.3-0.1-9.4-0.1c-5.6-2.4-1.1-4.7,0.5-6
	c12.4-10,23.4-21.5,34.5-32.8c3.4,0.7,6.2-1,8.9-2.6C155.2,122,168.1,104,172.5,80z"/>
<path id="XMLID_507_" class="st1" d="M29.6,99.4c2.6,0.8,3.2,3.1,4.5,5.2c14.6,24.6,36,37.8,64.8,38c4.5,0,8.9,0.4,13.3,1.3
	c-9.6,10.8-20.2,20.5-32.5,28.3c-17.9-6-31.2-17.8-41.5-33.3c-0.7-1.3-1.4-2.5-2.2-3.8C32.4,123.5,27.6,112.1,29.6,99.4z"/>
<path id="XMLID_505_" class="st2" d="M36.1,135.1c0.7,1.3,1.4,2.5,2.2,3.8c-5.5,10.4-8.5,21.5-9.1,33.2
	c-0.7,12.7,6.4,18.8,18.6,16.5c12.2-2.3,22.4-8.8,32-16.4c12.3-7.8,22.9-17.4,32.5-28.3c22.6-23.4,41.8-49.2,54.8-79.2
	c5.4-9.9,8.1-20.6,8.9-31.7c1-13.1-6.2-19.5-18.9-16.9c-12.1,2.5-22.5,8.6-31.9,16.5c-1.3-0.7-2.5-1.5-3.8-2.2
	c7.1-6.3,15.4-10.6,23.8-14.8c1.4-0.7,3.9-0.2,3.8-2.9l-0.2,0.2c3.2,1.5,6.1-0.7,9.1-1.1c13.8-1.6,21.6,5.3,22.1,19.2
	c0.4,12.8-4.5,24.3-9,35.8c-0.6,1.5-1.1,2.9-1.7,4.4c-12,23.7-27.5,45-44.1,65.6c-11.1,11.3-22.1,22.9-34.5,32.8
	c-1.7,1.3-6.2,3.6-0.5,6c0.6,0.3,1.4,0.9,2,0.8c1.7-0.3,1.2-1.4,0.1-1.8c-3.6-1.4-6.9-1.1-10.3,1.4c-7.1,5.5-15,9.7-23.1,13.5
	c-6.6,3-13.6,3.4-20.7,3.8c-2-2.5-5.1-2.2-7.7-2.8C19.5,170.6,27.4,152.8,36.1,135.1z"/>
<path id="XMLID_489_" class="st0" d="M125.1,136.6c16.6-20.5,32.1-41.9,44.1-65.6c1.8,2.7,3.3,5.6,3.4,8.9
	c-4.4,24.1-17.3,42-38.5,54.1C131.2,135.6,128.5,137.3,125.1,136.6z"/>
<path id="XMLID_427_" class="st3" d="M109.2,136.8c-1.9-0.7-4.3-1.3-3.8-4c0.4-2,2.7-2.3,4.5-2.1c2,0.3,3.4,1.6,3.3,3.7
	C113.2,137,111.2,136.9,109.2,136.8z"/>
</svg>
